<svg viewBox="0 0 78 46.8" fill="none" xmlns="http://www.w3.org/2000/svg"><g clip-path="url(#clip0_628_2584)"><path d="M76.7031 1.29761e-05H72.3203C72.1382 -0.0189356 71.9543 0.0081439 71.7853 0.0787648C71.6164 0.149386 71.4679 0.261279 71.3534 0.404204C71.1607 0.685774 71.0037 0.990157 70.8858 1.31037L61.5232 29.142C61.4387 29.3507 61.3145 29.4564 61.1481 29.4564C60.9816 29.4564 60.8548 29.3507 60.7729 29.142L51.4103 1.31037C51.3277 0.981979 51.1794 0.673717 50.9744 0.404204C50.8518 0.262626 50.6973 0.152176 50.5237 0.081909C50.3501 0.0116416 50.1623 -0.0164292 49.9758 1.29761e-05H45.6062C44.7256 1.29761e-05 44.2853 0.440318 44.2853 1.32093V1.84929C44.9918 2.30961 45.6417 2.85138 46.2217 3.46345C47.2394 4.55058 48.037 5.8245 48.5703 7.21485C49.1361 8.6782 49.422 10.2348 49.4131 11.8037V12.554C49.4131 14.8436 48.9138 16.8302 47.9151 18.514C46.9165 20.1977 45.7691 21.4508 44.4728 22.2733C46.3784 23.1799 47.9272 24.6962 48.8741 26.5821C49.9534 28.6622 50.4982 30.9783 50.4592 33.3214V34.2593C50.4764 35.9501 50.191 37.6303 49.6165 39.2206C49.0846 40.6938 48.2566 42.0425 47.1834 43.1833C46.3432 44.0677 45.3609 44.8053 44.2773 45.3655V45.4949C44.2773 46.3668 44.7159 46.8159 45.5983 46.8159H51.9651C52.8369 46.8159 53.286 46.3773 53.286 45.4949V28.8277C53.286 28.5793 53.389 28.4446 53.5977 28.4235C53.692 28.4089 53.7884 28.4293 53.8687 28.4809C53.949 28.5325 54.0077 28.6117 54.0336 28.7035L59.4018 45.5557C59.5104 45.9187 59.7032 46.2509 59.9645 46.5253C60.2724 46.741 60.6469 46.8402 61.0213 46.8053H61.2696C61.6438 46.8391 62.0179 46.7399 62.3263 46.5253C62.5858 46.25 62.7776 45.918 62.8864 45.5557L68.2546 28.7035C68.2816 28.6117 68.3409 28.5329 68.4215 28.4814C68.5021 28.4299 68.5985 28.4094 68.6931 28.4235C68.8992 28.4446 69.0049 28.5793 69.0049 28.8277V45.4949C69.0049 46.3668 69.4408 46.8159 70.3258 46.8159H76.7031C77.5776 46.8159 78.0241 46.3773 78.0241 45.4949V1.31037C78.0082 0.436801 77.5679 1.29761e-05 76.7031 1.29761e-05Z" fill="#D52A33"></path><path d="M12.922 2.42889e-06C15.4194 2.42889e-06 17.5831 0.384828 19.413 1.15448C21.1634 1.86575 22.716 2.98963 23.9384 4.43035C25.1682 5.92886 26.0619 7.67392 26.5591 9.54758C27.147 11.7458 27.4305 14.0142 27.4019 16.2895V30.5211C27.4307 32.7963 27.1471 35.0648 26.5591 37.263C26.0624 39.1369 25.1687 40.882 23.9384 42.3802C22.7162 43.8218 21.1636 44.9465 19.413 45.6587C17.5831 46.4284 15.4194 46.8132 12.922 46.8132H1.31115C0.436703 46.8132 -0.00976562 46.3747 -0.00976562 45.4923V1.31036C-0.00976562 0.429746 0.430539 -0.0105591 1.31115 -0.0105591L12.922 2.42889e-06ZM18.4143 30.8962V15.9144C18.4193 14.8586 18.3353 13.8043 18.1634 12.7627C18.0269 11.8651 17.7086 11.0048 17.2282 10.2344C16.7782 9.53592 16.1546 8.9661 15.4185 8.58066C14.6682 8.18614 13.6899 7.98889 12.4834 7.98889H10.1745C9.71745 7.98889 9.40571 8.07343 9.23928 8.23722C9.07284 8.40102 8.9883 8.71803 8.9883 9.17507V37.6381C8.9883 38.0952 9.07284 38.4069 9.23928 38.5733C9.40571 38.7398 9.71745 38.8243 10.1745 38.8243H12.4834C13.6899 38.8243 14.6682 38.6262 15.4185 38.2299C16.1559 37.8463 16.7799 37.2761 17.2282 36.5761C17.7086 35.8058 18.0269 34.9455 18.1634 34.0479C18.3354 33.0062 18.4194 31.9519 18.4143 30.8962Z" fill="#D52A33"></path><path d="M34.3691 38.8243H36.678C37.3195 38.8408 37.9572 38.7213 38.5492 38.4736C39.1411 38.2259 39.6739 37.8556 40.1124 37.3871C41.03 36.4308 41.4879 35.0165 41.4862 33.1444V32.0189C41.4862 30.1468 41.0388 28.7325 40.1441 27.7762C39.7031 27.303 39.1657 26.9299 38.5683 26.682C37.9708 26.4341 37.3272 26.3171 36.6807 26.339H34.3717C33.912 26.339 33.6003 26.4236 33.4339 26.6032C33.2674 26.7828 33.1855 27.0814 33.1855 27.5384V37.6513C33.1855 38.1084 33.2674 38.4201 33.4339 38.5865C33.6003 38.753 33.9041 38.8243 34.3691 38.8243Z" fill="#D52A33"></path><path d="M34.3705 18.3501H36.616C37.1512 18.3596 37.6821 18.2527 38.1719 18.037C38.6618 17.8212 39.099 17.5017 39.4533 17.1005C40.223 16.2675 40.6078 15.0822 40.6078 13.5446V12.7944C40.6078 11.2568 40.2336 10.0706 39.485 9.23582C39.1267 8.83063 38.6838 8.50896 38.1877 8.29351C37.6915 8.07806 37.1541 7.97408 36.6134 7.98887H34.3678C33.9081 7.98887 33.5964 8.08134 33.43 8.2689C33.2635 8.45647 33.1816 8.84218 33.1816 9.42338V17.1639C33.1816 17.6236 33.2635 17.9354 33.43 18.0992C33.5964 18.2629 33.9055 18.3501 34.3705 18.3501Z" fill="#D52A33"></path></g><defs><clipPath id="clip0_628_2584"><rect width="78" height="46.8132" fill="#D52A33"></rect></clipPath></defs></svg>