<svg viewBox="0 0 260 47" fill="none" xmlns="http://www.w3.org/2000/svg"><g clip-path="url(#clip0_632_3856)"><path d="M77.0082 3.64077e-05H72.6211C72.4383 -0.0189878 72.2536 0.00819977 72.084 0.0791024C71.9144 0.150005 71.7653 0.262353 71.6504 0.405849C71.4569 0.688542 71.2992 0.994132 71.1809 1.31562L61.7809 29.2663C61.696 29.4758 61.5714 29.5793 61.4043 29.5793C61.2372 29.5793 61.1099 29.4758 61.0276 29.2663L51.6276 1.31562C51.5447 0.98592 51.3958 0.676436 51.19 0.405849C51.0669 0.263705 50.9118 0.152807 50.7376 0.0822592C50.5633 0.0117114 50.3747 -0.0164713 50.1874 3.64077e-05H45.8004C44.9162 3.64077e-05 44.4742 0.442098 44.4742 1.32622V1.8567C45.1835 2.31885 45.8361 2.86279 46.4184 3.4773C47.4365 4.56804 48.2344 5.8451 48.7684 7.23836C49.3356 8.70856 49.6208 10.2724 49.6092 11.8482V12.6014C49.6092 14.9002 49.1079 16.8948 48.1053 18.5852C47.1027 20.2756 45.9533 21.5399 44.6572 22.3781C46.5369 23.2534 48.0098 24.6945 49.076 26.7015C50.1597 28.7908 50.7066 31.117 50.6675 33.4703V34.3933C50.6852 36.0909 50.3987 37.778 49.8214 39.3745C49.2871 40.8534 48.4557 42.2074 47.3785 43.353C46.5342 44.2393 45.5482 44.9788 44.4609 45.5412V45.6712C44.4609 46.5553 44.903 46.9974 45.7871 46.9974H52.1793C53.0546 46.9974 53.5055 46.5597 53.5055 45.6712V28.9533C53.5055 28.7013 53.6089 28.5661 53.8185 28.5449C53.9131 28.5308 54.0096 28.5516 54.0901 28.6033C54.1706 28.655 54.2296 28.7341 54.2561 28.826L59.6458 45.7481C59.7553 46.1116 59.9488 46.4441 60.2107 46.7189C60.4176 46.9072 60.7757 47 61.2717 47H61.521C61.8968 47.0351 62.2728 46.9355 62.5819 46.7189C62.8419 46.4431 63.0344 46.1108 63.1442 45.7481L68.5339 28.826C68.5615 28.7342 68.621 28.6553 68.7018 28.6038C68.7826 28.5522 68.8792 28.5313 68.9741 28.5449C69.181 28.5661 69.2871 28.7013 69.2871 28.9533V45.6845C69.2871 46.5686 69.7292 47.0107 70.6133 47.0107H77.0082C77.8923 47.0107 78.3343 46.5686 78.3343 45.6845V1.31562C78.3184 0.438567 77.8764 3.64077e-05 77.0082 3.64077e-05Z" fill="#D52A33"/><path d="M12.9693 -0.000138535C15.4749 -0.000138535 17.6472 0.38623 19.4862 1.15895C21.2431 1.87398 22.8017 3.00219 24.0297 4.44789C25.2643 5.95338 26.1615 7.70627 26.6608 9.58819C27.2513 11.7951 27.536 14.0727 27.5069 16.357V30.6427C27.536 32.9271 27.2513 35.2046 26.6608 37.4115C26.1615 39.2935 25.2643 41.0463 24.0297 42.5518C22.8024 43.9983 21.2436 45.1267 19.4862 45.8408C17.6472 46.6153 15.4749 47.0016 12.9693 46.9999H1.29884C0.414718 46.9999 -0.0273438 46.5578 -0.0273438 45.6737V1.31544C-0.0273438 0.43132 0.414718 -0.0107422 1.29884 -0.0107422L12.9693 -0.000138535ZM18.4836 31.0326V15.9937C18.4887 14.9337 18.4044 13.8752 18.2316 12.8294C18.0945 11.9282 17.775 11.0645 17.2926 10.2911C16.8425 9.58832 16.2161 9.01583 15.4758 8.63068C14.7225 8.23282 13.7402 8.03389 12.529 8.03389H10.2108C9.75197 8.03389 9.43898 8.11877 9.27188 8.28587C9.10478 8.45297 9.00664 8.76594 9.00664 9.2248V37.7882C9.00664 38.247 9.09152 38.5627 9.27188 38.7271C9.45224 38.8916 9.75197 38.9924 10.2108 38.9924H12.529C13.7402 38.9924 14.7225 38.7934 15.4758 38.3956C16.2161 38.0104 16.8425 37.4379 17.2926 36.7352C17.7758 35.9622 18.0954 35.0983 18.2316 34.1969C18.4052 33.1467 18.4895 32.0837 18.4836 31.0193V31.0326Z" fill="#D52A33"/><path d="M34.5112 38.9775H36.8294C37.4734 38.9941 38.1137 38.8741 38.708 38.6254C39.3023 38.3767 39.8372 38.005 40.2775 37.5346C41.1987 36.5745 41.6585 35.1546 41.6567 33.2749V32.1477C41.6567 30.2663 41.2076 28.8455 40.3093 27.8853C39.8666 27.4089 39.3269 27.0329 38.7267 26.7826C38.1264 26.5324 37.4794 26.4136 36.8294 26.4345H34.5112C34.0497 26.4345 33.7367 26.5193 33.5696 26.6997C33.4025 26.8801 33.3203 27.1798 33.3203 27.6386V37.7866C33.3203 38.2455 33.4025 38.5611 33.5696 38.7255C33.7367 38.89 34.0444 38.9775 34.5112 38.9775Z" fill="#D52A33"/><path d="M34.5112 18.4244H36.7657C37.3031 18.4336 37.8362 18.3264 38.3283 18.1103C38.8204 17.8942 39.2601 17.5743 39.617 17.1725C40.3898 16.3379 40.7761 15.147 40.7761 13.5998V12.8465C40.7761 11.3028 40.4004 10.1128 39.6489 9.2764C39.2893 8.86911 38.8448 8.54567 38.3466 8.3289C37.8485 8.11213 37.3088 8.00731 36.7657 8.02184H34.5112C34.0497 8.02184 33.7367 8.11467 33.5696 8.30299C33.4025 8.4913 33.3203 8.87855 33.3203 9.46207V17.2335C33.3203 17.695 33.4025 18.008 33.5696 18.1751C33.7367 18.3422 34.0444 18.4244 34.5112 18.4244Z" fill="#D52A33"/><path d="M123.796 27.4256C123.809 27.9512 123.704 28.473 123.489 28.9529C123.274 29.4328 122.955 29.8588 122.555 30.2C122.187 30.5171 121.763 30.7643 121.306 30.9294C120.354 31.2733 119.31 31.261 118.367 30.8949C117.911 30.7173 117.493 30.4534 117.136 30.1178C116.785 29.7796 116.503 29.3759 116.306 28.9295C116.096 28.4537 115.984 27.9404 115.977 27.4203C115.973 27.3301 115.987 27.2401 116.017 27.1551C116.044 27.0887 116.118 27.0543 116.237 27.0543H117.616C117.831 27.0543 117.943 27.1471 117.956 27.3195C117.983 27.5615 118.047 27.7977 118.147 28.0197C118.246 28.2446 118.377 28.4538 118.537 28.6404C118.698 28.8282 118.896 28.9816 119.118 29.0913C119.361 29.2075 119.628 29.2656 119.897 29.261C120.127 29.2692 120.355 29.2298 120.568 29.1454C120.781 29.0609 120.975 28.9332 121.136 28.7703C121.467 28.4302 121.657 27.9771 121.667 27.5025C121.687 27.0317 121.56 26.5663 121.303 26.171C121.022 25.725 120.69 25.3129 120.314 24.943C119.912 24.5451 119.47 24.1393 118.988 23.7255C118.517 23.319 118.07 22.886 117.648 22.4285C117.242 21.9861 116.896 21.492 116.619 20.9591C116.344 20.4254 116.204 19.8327 116.211 19.2324C116.207 18.7715 116.292 18.3141 116.46 17.885C116.62 17.4757 116.865 17.1051 117.179 16.7976C117.5 16.4853 117.881 16.2409 118.298 16.0788C118.753 15.9001 119.239 15.8101 119.728 15.8135C120.228 15.8017 120.725 15.892 121.189 16.0788C121.601 16.249 121.972 16.5038 122.279 16.8267C122.58 17.1437 122.817 17.5156 122.977 17.9222C123.146 18.3453 123.245 18.7933 123.269 19.2483C123.272 19.3385 123.259 19.4285 123.229 19.5136C123.202 19.5799 123.128 19.6117 123.009 19.6117H121.629C121.414 19.6117 121.3 19.5189 121.287 19.3332C121.214 18.9249 121.049 18.5385 120.805 18.2033C120.687 18.0431 120.532 17.9144 120.353 17.8288C120.174 17.7431 119.976 17.7032 119.778 17.7126C119.579 17.7066 119.381 17.7438 119.198 17.8217C119.015 17.8995 118.851 18.0161 118.717 18.1635C118.583 18.3088 118.48 18.4806 118.416 18.6679C118.352 18.8552 118.328 19.0538 118.346 19.251C118.387 19.6603 118.548 20.0485 118.807 20.3676C119.119 20.7755 119.462 21.1594 119.831 21.5161C120.233 21.9087 120.664 22.3145 121.126 22.7336C121.586 23.1526 122.016 23.6037 122.412 24.0836C122.8 24.5535 123.13 25.0693 123.393 25.6193C123.664 26.1828 123.802 26.8006 123.796 27.4256Z" fill="#202F3C"/><path d="M126.237 30.9991C126.18 31.007 126.122 31.0016 126.068 30.9834C126.013 30.9651 125.964 30.9345 125.923 30.8939C125.883 30.8533 125.852 30.8038 125.834 30.7493C125.815 30.6949 125.81 30.6369 125.818 30.58V16.4217C125.81 16.3648 125.815 16.3068 125.834 16.2523C125.852 16.1979 125.883 16.1484 125.923 16.1078C125.964 16.0672 126.013 16.0365 126.068 16.0183C126.122 16 126.18 15.9946 126.237 16.0026H127.179C127.237 15.9964 127.296 16.0051 127.35 16.0278C127.405 16.0506 127.452 16.0866 127.489 16.1325C127.549 16.2229 127.599 16.3199 127.638 16.4217L130.677 26.7659C130.704 26.8322 130.743 26.864 130.797 26.864C130.85 26.864 130.889 26.8322 130.919 26.7659L133.977 16.4217C134.015 16.3193 134.066 16.2222 134.128 16.1325C134.164 16.0864 134.211 16.0502 134.265 16.0275C134.319 16.0047 134.377 15.9962 134.436 16.0026H135.377C135.434 15.9946 135.492 16 135.546 16.0183C135.601 16.0365 135.65 16.0672 135.691 16.1078C135.732 16.1484 135.762 16.1979 135.781 16.2523C135.799 16.3068 135.804 16.3648 135.796 16.4217V30.58C135.804 30.6369 135.799 30.6949 135.781 30.7493C135.762 30.8038 135.732 30.8533 135.691 30.8939C135.65 30.9345 135.601 30.9651 135.546 30.9834C135.492 31.0016 135.434 31.007 135.377 30.9991H134.077C134.02 31.0075 133.962 31.0024 133.907 30.9844C133.853 30.9663 133.803 30.9358 133.762 30.8951C133.721 30.8544 133.69 30.8048 133.672 30.7501C133.653 30.6954 133.648 30.6372 133.656 30.58V23.4186C133.656 23.339 133.624 23.294 133.558 23.2886C133.491 23.2833 133.444 23.3178 133.417 23.3974L131.385 30.5986C131.361 30.7167 131.302 30.8249 131.216 30.9089C131.112 30.9776 130.989 31.0094 130.865 30.9991H130.765C130.641 31.0094 130.518 30.9776 130.415 30.9089C130.328 30.8249 130.269 30.7167 130.245 30.5986L128.202 23.4C128.176 23.3205 128.131 23.2833 128.062 23.2913C127.993 23.2993 127.964 23.3417 127.964 23.4213V30.5827C127.972 30.6398 127.966 30.698 127.948 30.7527C127.93 30.8074 127.899 30.8571 127.858 30.8978C127.817 30.9384 127.767 30.969 127.712 30.9871C127.657 31.0051 127.599 31.0101 127.542 31.0017L126.237 30.9991Z" fill="#202F3C"/><path d="M137.455 30.5983L140.637 16.4028C140.639 16.3392 140.654 16.2766 140.682 16.2194C140.71 16.1622 140.75 16.1116 140.799 16.0712C140.911 16.0189 141.034 15.9952 141.157 16.0023H142.197C142.321 15.9949 142.445 16.0186 142.558 16.0712C142.659 16.1539 142.724 16.2729 142.738 16.4028L145.897 30.5983C145.937 30.7468 145.924 30.8476 145.857 30.9086C145.784 30.9724 145.689 31.0048 145.592 30.9988H144.231C144.119 31.0015 144.009 30.9619 143.924 30.8877C143.839 30.8136 143.785 30.7103 143.773 30.5983L143.274 28.2111C143.262 28.1221 143.219 28.0402 143.152 27.9804C143.069 27.9439 142.978 27.9275 142.887 27.9326H140.486C140.391 27.9254 140.295 27.9418 140.208 27.9804C140.139 28.0387 140.095 28.1214 140.086 28.2111L139.587 30.5983C139.575 30.7103 139.52 30.8136 139.436 30.8877C139.351 30.9619 139.241 31.0015 139.128 30.9988H137.749C137.652 31.0048 137.557 30.9724 137.484 30.9086C137.428 30.8476 137.415 30.7468 137.455 30.5983ZM140.513 25.824C140.473 25.9725 140.513 26.0442 140.675 26.0442H142.693C142.812 26.0442 142.865 25.9725 142.852 25.824L141.791 20.4662C141.787 20.4373 141.772 20.4109 141.75 20.3918C141.728 20.3727 141.7 20.3621 141.671 20.3621C141.641 20.3621 141.613 20.3727 141.591 20.3918C141.569 20.4109 141.554 20.4373 141.55 20.4662L140.513 25.824Z" fill="#202F3C"/><path d="M155.346 30.5986C155.372 30.6423 155.387 30.6914 155.391 30.742C155.395 30.7926 155.387 30.8433 155.368 30.8903C155.345 30.9273 155.312 30.9572 155.273 30.9764C155.234 30.9957 155.191 31.0035 155.148 30.9991H153.628C153.531 31.0075 153.434 30.9848 153.351 30.9342C153.268 30.8836 153.203 30.8079 153.166 30.7179L151.087 25.3416H150.068C149.962 25.3291 149.855 25.3575 149.769 25.4212C149.705 25.5076 149.677 25.6145 149.689 25.7209V30.58C149.697 30.6372 149.692 30.6954 149.673 30.7501C149.655 30.8048 149.624 30.8544 149.583 30.8951C149.542 30.9358 149.492 30.9663 149.437 30.9844C149.383 31.0024 149.324 31.0075 149.267 30.9991H147.968C147.911 31.007 147.853 31.0016 147.798 30.9834C147.744 30.9651 147.694 30.9345 147.654 30.8939C147.613 30.8533 147.582 30.8038 147.564 30.7493C147.546 30.6949 147.541 30.6369 147.548 30.58V16.4217C147.541 16.3648 147.546 16.3068 147.564 16.2523C147.582 16.1979 147.613 16.1484 147.654 16.1078C147.694 16.0672 147.744 16.0365 147.798 16.0183C147.853 16 147.911 15.9946 147.968 16.0026H151.127C151.63 15.9928 152.13 16.083 152.599 16.2678C153.039 16.452 153.434 16.7288 153.758 17.0794C154.098 17.4556 154.356 17.8981 154.516 18.3791C154.702 18.9364 154.792 19.5212 154.782 20.1085V21.2092C154.804 21.9726 154.643 22.7303 154.312 23.4186C154.022 23.9993 153.576 24.4872 153.023 24.827L155.346 30.5986ZM149.681 22.9889C149.669 23.0953 149.697 23.2022 149.761 23.2886C149.847 23.3523 149.954 23.3807 150.06 23.3682H150.941C151.161 23.3669 151.379 23.3211 151.582 23.2336C151.784 23.1461 151.967 23.0187 152.119 22.859C152.466 22.5195 152.649 21.9678 152.649 21.2092V20.0713C152.649 19.3101 152.477 18.7451 152.119 18.4109C151.969 18.2465 151.787 18.1146 151.585 18.0233C151.382 17.9321 151.163 17.8834 150.941 17.8805H150.06C149.954 17.868 149.847 17.8964 149.761 17.96C149.697 18.0464 149.669 18.1534 149.681 18.2598V22.9889Z" fill="#202F3C"/><path d="M163.208 16.0026C163.265 15.9946 163.323 16 163.377 16.0183C163.432 16.0365 163.481 16.0672 163.522 16.1078C163.562 16.1484 163.593 16.1979 163.611 16.2523C163.629 16.3068 163.635 16.3648 163.627 16.4217V17.4826C163.635 17.5395 163.629 17.5975 163.611 17.6519C163.593 17.7064 163.562 17.7559 163.522 17.7965C163.481 17.8371 163.432 17.8677 163.377 17.886C163.323 17.9043 163.265 17.9096 163.208 17.9017H161.468C161.415 17.8869 161.36 17.8865 161.307 17.9003C161.254 17.9141 161.206 17.9418 161.167 17.9804C161.129 18.019 161.101 18.0672 161.087 18.12C161.073 18.1728 161.074 18.2284 161.089 18.281V30.58C161.097 30.6372 161.091 30.6954 161.073 30.7501C161.054 30.8048 161.023 30.8544 160.983 30.8951C160.942 30.9358 160.892 30.9663 160.837 30.9844C160.782 31.0024 160.724 31.0075 160.667 30.9991H159.367C159.31 31.007 159.252 31.0016 159.198 30.9834C159.143 30.9651 159.094 30.9345 159.053 30.8939C159.013 30.8533 158.982 30.8038 158.964 30.7493C158.946 30.6949 158.94 30.6369 158.948 30.58V18.281C158.963 18.2284 158.963 18.1728 158.95 18.12C158.936 18.0672 158.908 18.019 158.869 17.9804C158.831 17.9418 158.783 17.9141 158.73 17.9003C158.677 17.8865 158.621 17.8869 158.569 17.9017H156.829C156.772 17.9096 156.714 17.9043 156.66 17.886C156.605 17.8677 156.556 17.8371 156.515 17.7965C156.474 17.7559 156.444 17.7064 156.425 17.6519C156.407 17.5975 156.402 17.5395 156.41 17.4826V16.4217C156.402 16.3648 156.407 16.3068 156.425 16.2523C156.444 16.1979 156.474 16.1484 156.515 16.1078C156.556 16.0672 156.605 16.0365 156.66 16.0183C156.714 16 156.772 15.9946 156.829 16.0026H163.208Z" fill="#202F3C"/><path d="M167.492 18.283V21.9778C167.477 22.0304 167.477 22.086 167.491 22.1388C167.505 22.1916 167.532 22.2398 167.571 22.2786C167.609 22.3173 167.657 22.3452 167.71 22.3595C167.763 22.3737 167.818 22.3738 167.871 22.3597H170.773C170.829 22.3519 170.887 22.3572 170.941 22.3753C170.995 22.3934 171.045 22.4238 171.085 22.4641C171.126 22.5044 171.157 22.5536 171.175 22.6077C171.194 22.6618 171.199 22.7195 171.192 22.7762V23.8371C171.199 23.8937 171.194 23.9513 171.175 24.0053C171.157 24.0593 171.126 24.1083 171.085 24.1485C171.045 24.1886 170.995 24.2187 170.941 24.2365C170.887 24.2543 170.829 24.2592 170.773 24.2509H167.871C167.818 24.2368 167.763 24.2369 167.71 24.2511C167.657 24.2654 167.609 24.2933 167.571 24.332C167.532 24.3708 167.505 24.419 167.491 24.4718C167.477 24.5246 167.477 24.5802 167.492 24.6328V28.7121C167.477 28.7647 167.477 28.8203 167.49 28.8731C167.504 28.9259 167.532 28.9741 167.57 29.0127C167.609 29.0514 167.657 29.079 167.71 29.0928C167.763 29.1067 167.818 29.1062 167.871 29.0914H170.773C170.83 29.0835 170.888 29.0889 170.942 29.1071C170.997 29.1254 171.046 29.156 171.087 29.1966C171.127 29.2373 171.158 29.2867 171.176 29.3412C171.194 29.3957 171.2 29.4536 171.192 29.5105V30.5715C171.2 30.6284 171.194 30.6863 171.176 30.7408C171.158 30.7952 171.127 30.8447 171.087 30.8853C171.046 30.926 170.997 30.9566 170.942 30.9748C170.888 30.9931 170.83 30.9985 170.773 30.9905H165.773C165.716 30.9989 165.658 30.9939 165.603 30.9759C165.548 30.9578 165.498 30.9272 165.457 30.8866C165.416 30.8459 165.385 30.7962 165.367 30.7415C165.349 30.6868 165.343 30.6286 165.351 30.5715V16.4211C165.343 16.3639 165.349 16.3057 165.367 16.251C165.385 16.1963 165.416 16.1467 165.457 16.106C165.498 16.0653 165.548 16.0347 165.603 16.0167C165.658 15.9986 165.716 15.9936 165.773 16.002H170.773C170.83 15.9941 170.888 15.9994 170.942 16.0177C170.997 16.0359 171.046 16.0666 171.087 16.1072C171.127 16.1478 171.158 16.1973 171.176 16.2518C171.194 16.3062 171.2 16.3642 171.192 16.4211V17.482C171.2 17.5389 171.194 17.5969 171.176 17.6513C171.158 17.7058 171.127 17.7553 171.087 17.7959C171.046 17.8365 170.997 17.8672 170.942 17.8854C170.888 17.9037 170.83 17.909 170.773 17.9011H167.871C167.765 17.8891 167.658 17.9175 167.571 17.9807C167.508 18.0681 167.48 18.1759 167.492 18.283Z" fill="#202F3C"/><path d="M181.127 30.598C181.152 30.6419 181.167 30.6911 181.17 30.7417C181.173 30.7923 181.165 30.843 181.145 30.8898C181.122 30.9268 181.09 30.9566 181.051 30.9758C181.012 30.9951 180.968 31.0029 180.925 30.9985H179.405C179.309 31.0072 179.212 30.9845 179.129 30.9339C179.047 30.8832 178.982 30.8073 178.946 30.7173L176.867 25.341H175.846C175.793 25.3263 175.738 25.3258 175.685 25.3396C175.632 25.3534 175.584 25.3811 175.545 25.4197C175.506 25.4583 175.479 25.5065 175.465 25.5593C175.451 25.6121 175.452 25.6677 175.466 25.7203V30.5794C175.474 30.6363 175.469 30.6943 175.451 30.7487C175.432 30.8032 175.402 30.8527 175.361 30.8933C175.321 30.9339 175.271 30.9646 175.217 30.9828C175.162 31.0011 175.104 31.0064 175.047 30.9985H173.748C173.691 31.0069 173.632 31.0019 173.577 30.9838C173.523 30.9658 173.473 30.9352 173.432 30.8945C173.391 30.8538 173.36 30.8042 173.342 30.7495C173.323 30.6948 173.318 30.6366 173.326 30.5794V16.4211C173.318 16.3639 173.323 16.3057 173.342 16.251C173.36 16.1963 173.391 16.1467 173.432 16.106C173.473 16.0653 173.523 16.0347 173.577 16.0167C173.632 15.9986 173.691 15.9936 173.748 16.002H176.907C177.409 15.992 177.909 16.0822 178.376 16.2672C178.816 16.4514 179.211 16.7282 179.535 17.0789C179.876 17.4549 180.135 17.8974 180.296 18.3785C180.482 18.9358 180.572 19.5206 180.562 20.1079V21.2086C180.583 21.9722 180.421 22.7299 180.089 23.418C179.8 23.9987 179.353 24.4866 178.8 24.8264L181.127 30.598ZM175.466 22.9883C175.452 23.0409 175.451 23.0965 175.465 23.1493C175.479 23.2021 175.506 23.2503 175.545 23.2889C175.584 23.3275 175.632 23.3552 175.685 23.369C175.738 23.3828 175.793 23.3824 175.846 23.3676H176.74C176.96 23.3664 177.179 23.3206 177.381 23.2331C177.584 23.1456 177.767 23.0182 177.92 22.8584C178.265 22.5189 178.45 21.9672 178.45 21.2086V20.0707C178.45 19.3095 178.275 18.7445 177.92 18.4103C177.77 18.2458 177.588 18.1139 177.385 18.0226C177.182 17.9314 176.962 17.8828 176.74 17.8799H175.859C175.806 17.8651 175.751 17.8647 175.698 17.8785C175.645 17.8923 175.597 17.92 175.558 17.9586C175.52 17.9972 175.492 18.0454 175.478 18.0982C175.464 18.151 175.465 18.2066 175.48 18.2592L175.466 22.9883Z" fill="#202F3C"/><path d="M187.664 30.9985C187.606 31.0069 187.548 31.0019 187.493 30.9838C187.439 30.9658 187.389 30.9352 187.348 30.8945C187.307 30.8538 187.276 30.8042 187.258 30.7495C187.239 30.6948 187.234 30.6366 187.242 30.5794V16.4211C187.234 16.3639 187.239 16.3057 187.258 16.251C187.276 16.1963 187.307 16.1467 187.348 16.106C187.389 16.0653 187.439 16.0347 187.493 16.0167C187.548 15.9986 187.606 15.9936 187.664 16.002H188.194C188.254 15.9962 188.315 16.005 188.371 16.0276C188.426 16.0502 188.476 16.086 188.515 16.132C188.581 16.2178 188.629 16.3161 188.656 16.4211L191.754 27.9801C191.78 28.0464 191.82 28.0782 191.873 28.0782C191.901 28.0769 191.928 28.0667 191.95 28.0491C191.972 28.0315 191.988 28.0073 191.995 27.9801L195.114 16.4211C195.141 16.3161 195.189 16.2178 195.255 16.132C195.295 16.0863 195.346 16.0507 195.402 16.0282C195.459 16.0056 195.52 15.9966 195.581 16.002H196.111C196.169 15.9937 196.227 15.9988 196.282 16.0168C196.337 16.0349 196.387 16.0654 196.428 16.106C196.469 16.1466 196.5 16.1962 196.519 16.2509C196.538 16.3055 196.543 16.3638 196.536 16.4211V30.5794C196.543 30.6367 196.538 30.695 196.519 30.7496C196.5 30.8043 196.469 30.8539 196.428 30.8945C196.387 30.9351 196.337 30.9656 196.282 30.9837C196.227 31.0017 196.169 31.0068 196.111 30.9985H195.44C195.383 31.0068 195.325 31.0017 195.27 30.9837C195.215 30.9656 195.165 30.9351 195.124 30.8945C195.083 30.8539 195.052 30.8043 195.033 30.7496C195.014 30.695 195.008 30.6367 195.016 30.5794V21.8797C195.016 21.7868 194.982 21.7364 194.915 21.7311C194.849 21.7258 194.804 21.7682 194.777 21.8611L192.478 30.598C192.459 30.7209 192.399 30.8339 192.308 30.9189C192.202 30.98 192.08 31.0077 191.958 30.9985H191.817C191.695 31.008 191.573 30.9803 191.467 30.9189C191.375 30.8352 191.314 30.7216 191.297 30.598L188.998 21.8611C188.971 21.7682 188.923 21.7232 188.857 21.7311C188.791 21.7391 188.756 21.7868 188.756 21.8797V30.5794C188.764 30.6363 188.759 30.6943 188.741 30.7487C188.722 30.8032 188.692 30.8527 188.651 30.8933C188.611 30.9339 188.561 30.9646 188.507 30.9828C188.452 31.0011 188.394 31.0064 188.337 30.9985H187.664Z" fill="#202F3C"/><path d="M198.281 30.5984L201.281 16.403C201.282 16.3395 201.297 16.2771 201.325 16.2199C201.352 16.1627 201.392 16.1121 201.44 16.0714C201.553 16.0188 201.677 15.9951 201.801 16.0025H202.361C202.481 15.9946 202.602 16.0183 202.711 16.0714C202.806 16.1578 202.866 16.2756 202.881 16.403L205.88 30.5984C205.933 30.8637 205.833 30.999 205.581 30.999H204.854C204.743 31.0033 204.634 30.9637 204.552 30.8888C204.469 30.8139 204.42 30.7096 204.414 30.5984L203.793 27.6596C203.783 27.5705 203.741 27.4883 203.674 27.4289C203.585 27.39 203.489 27.3736 203.392 27.3811H200.793C200.702 27.376 200.611 27.3924 200.528 27.4289C200.461 27.4886 200.418 27.5705 200.406 27.6596L199.788 30.5984C199.782 30.7096 199.732 30.8139 199.65 30.8888C199.567 30.9637 199.459 31.0033 199.348 30.999H198.608C198.326 30.999 198.223 30.8663 198.281 30.5984ZM200.721 25.8242C200.695 25.9064 200.7 25.9621 200.74 25.9966C200.78 26.0283 200.83 26.0452 200.881 26.0443H203.281C203.4 26.0443 203.453 25.9727 203.44 25.8242L202.202 19.4054C202.193 19.3774 202.176 19.3528 202.153 19.3351C202.129 19.3175 202.101 19.3077 202.072 19.3073C202.044 19.3058 202.017 19.3153 201.996 19.3336C201.975 19.352 201.962 19.3778 201.96 19.4054L200.721 25.8242Z" fill="#202F3C"/><path d="M214.533 30.5986C214.557 30.6434 214.57 30.6935 214.57 30.7445C214.57 30.7954 214.557 30.8455 214.533 30.8903C214.507 30.9264 214.472 30.9553 214.432 30.9743C214.391 30.9933 214.347 31.0018 214.302 30.9991H213.44C213.343 31.0079 213.246 30.9854 213.163 30.9347C213.08 30.8841 213.015 30.8081 212.979 30.7179L210.729 24.9199H209.504C209.398 24.9079 209.291 24.9363 209.204 24.9994C209.14 25.0855 209.112 25.1927 209.125 25.2991V30.58C209.133 30.6372 209.127 30.6954 209.109 30.7501C209.091 30.8048 209.06 30.8544 209.019 30.8951C208.978 30.9358 208.928 30.9663 208.873 30.9844C208.818 31.0024 208.76 31.0075 208.703 30.9991H208.032C207.975 31.007 207.917 31.0016 207.863 30.9834C207.808 30.9651 207.759 30.9345 207.718 30.8939C207.678 30.8533 207.647 30.8038 207.629 30.7493C207.61 30.6949 207.605 30.6369 207.613 30.58V16.4217C207.605 16.3648 207.61 16.3068 207.629 16.2523C207.647 16.1979 207.678 16.1484 207.718 16.1078C207.759 16.0672 207.808 16.0365 207.863 16.0183C207.917 16 207.975 15.9946 208.032 16.0026H210.7C211.139 15.9868 211.576 16.0642 211.982 16.2297C212.389 16.3952 212.755 16.6451 213.058 16.9627C213.665 17.6028 213.969 18.5356 213.971 19.761V21.1614C213.998 21.92 213.832 22.6731 213.488 23.3496C213.194 23.9049 212.729 24.3504 212.162 24.6201L214.533 30.5986ZM209.135 23.1719C209.122 23.2784 209.151 23.3858 209.215 23.4717C209.301 23.5353 209.408 23.5637 209.515 23.5512H210.613C210.843 23.5512 211.071 23.5071 211.284 23.4213C211.51 23.33 211.712 23.1864 211.873 23.0022C212.058 22.788 212.201 22.5404 212.294 22.2728C212.408 21.9309 212.462 21.572 212.454 21.2118V19.7132C212.46 19.3532 212.406 18.9946 212.294 18.6523C212.204 18.3832 212.061 18.1351 211.873 17.9229C211.713 17.7478 211.518 17.6078 211.301 17.5114C211.084 17.4151 210.85 17.3647 210.613 17.3633H209.515C209.408 17.3507 209.301 17.3792 209.215 17.4428C209.151 17.5286 209.122 17.6361 209.135 17.7425V23.1719Z" fill="#202F3C"/><path d="M219.796 22.861L223.034 30.6589C223.073 30.7324 223.083 30.8172 223.064 30.8977C223.045 30.9666 222.981 30.9985 222.875 30.9985H221.915C221.82 31.0073 221.725 30.9866 221.642 30.9391C221.56 30.8916 221.494 30.8197 221.454 30.7332L218.756 24.3357C218.748 24.3065 218.731 24.2804 218.708 24.2606C218.685 24.2409 218.656 24.2282 218.626 24.2243C218.565 24.2243 218.515 24.2535 218.475 24.3357L217.915 25.4338C217.838 25.5586 217.777 25.6933 217.735 25.8343C217.707 25.9587 217.693 26.086 217.695 26.2136V30.5741C217.703 30.631 217.698 30.6889 217.68 30.7434C217.661 30.7978 217.631 30.8473 217.59 30.8879C217.549 30.9286 217.5 30.9592 217.445 30.9775C217.391 30.9957 217.333 31.0011 217.276 30.9931H216.595C216.538 31.0011 216.48 30.9957 216.425 30.9775C216.371 30.9592 216.321 30.9286 216.281 30.8879C216.24 30.8473 216.209 30.7978 216.191 30.7434C216.173 30.6889 216.167 30.631 216.175 30.5741V16.421C216.167 16.3641 216.173 16.3062 216.191 16.2517C216.209 16.1972 216.24 16.1478 216.281 16.1071C216.321 16.0665 216.371 16.0359 216.425 16.0176C216.48 15.9994 216.538 15.994 216.595 16.002H217.276C217.333 15.994 217.391 15.9994 217.445 16.0176C217.5 16.0359 217.549 16.0665 217.59 16.1071C217.631 16.1478 217.661 16.1972 217.68 16.2517C217.698 16.3062 217.703 16.3641 217.695 16.421V22.8212C217.692 22.8488 217.7 22.8766 217.717 22.8988C217.733 22.921 217.758 22.936 217.785 22.9406C217.799 22.9441 217.814 22.9448 217.828 22.9427C217.842 22.9406 217.855 22.9357 217.867 22.9283C217.879 22.9209 217.89 22.9111 217.898 22.8995C217.906 22.888 217.912 22.8748 217.915 22.861L221.295 16.2301C221.341 16.1511 221.41 16.0868 221.491 16.0446C221.573 16.0024 221.664 15.9839 221.756 15.9913H222.695C222.801 15.9913 222.867 16.0232 222.894 16.0921C222.907 16.1322 222.91 16.1748 222.903 16.2163C222.896 16.2578 222.879 16.2971 222.854 16.3308L219.796 22.4101C219.76 22.4798 219.741 22.5571 219.741 22.6355C219.741 22.714 219.76 22.7913 219.796 22.861Z" fill="#202F3C"/><path d="M226.051 17.7207V22.1926C226.037 22.2455 226.037 22.301 226.052 22.3537C226.066 22.4064 226.094 22.4545 226.132 22.4931C226.171 22.5317 226.219 22.5595 226.272 22.5738C226.324 22.5881 226.38 22.5884 226.433 22.5746H229.372C229.427 22.5681 229.484 22.5744 229.537 22.593C229.59 22.6116 229.638 22.6419 229.678 22.6817C229.717 22.7216 229.747 22.7698 229.765 22.823C229.784 22.8761 229.79 22.9326 229.783 22.9883V23.487C229.791 23.5441 229.786 23.6023 229.768 23.6571C229.75 23.712 229.719 23.7618 229.679 23.8027C229.638 23.8437 229.589 23.8746 229.534 23.893C229.479 23.9113 229.421 23.9167 229.364 23.9087H226.425C226.318 23.8968 226.21 23.9252 226.123 23.9883C226.059 24.0747 226.031 24.1817 226.043 24.288V29.2877C226.031 29.3941 226.059 29.501 226.123 29.5874C226.21 29.6505 226.318 29.6789 226.425 29.667H229.364C229.421 29.6591 229.479 29.6644 229.533 29.6827C229.588 29.7009 229.637 29.7316 229.678 29.7722C229.718 29.8128 229.749 29.8623 229.767 29.9168C229.785 29.9712 229.791 30.0292 229.783 30.0861V30.5874C229.791 30.6443 229.785 30.7022 229.767 30.7567C229.749 30.8111 229.718 30.8606 229.678 30.9013C229.637 30.9419 229.588 30.9725 229.533 30.9908C229.479 31.009 229.421 31.0144 229.364 31.0065H224.945C224.888 31.0148 224.83 31.0098 224.775 30.9918C224.72 30.9737 224.67 30.9431 224.629 30.9025C224.588 30.8618 224.557 30.8121 224.539 30.7574C224.521 30.7028 224.515 30.6445 224.523 30.5874V16.4211C224.515 16.3639 224.521 16.3057 224.539 16.251C224.557 16.1963 224.588 16.1467 224.629 16.106C224.67 16.0653 224.72 16.0347 224.775 16.0167C224.83 15.9986 224.888 15.9936 224.945 16.002H229.364C229.421 15.9941 229.479 15.9994 229.533 16.0177C229.588 16.0359 229.637 16.0666 229.678 16.1072C229.718 16.1478 229.749 16.1973 229.767 16.2518C229.785 16.3062 229.791 16.3642 229.783 16.4211V16.9224C229.791 16.9793 229.785 17.0372 229.767 17.0917C229.749 17.1461 229.718 17.1956 229.678 17.2362C229.637 17.2769 229.588 17.3075 229.533 17.3258C229.479 17.344 229.421 17.3494 229.364 17.3414H226.425C226.318 17.3296 226.21 17.3579 226.123 17.421C226.062 17.5085 226.037 17.6154 226.051 17.7207Z" fill="#202F3C"/><path d="M237.551 16.002C237.608 15.9936 237.666 15.9986 237.721 16.0167C237.776 16.0347 237.825 16.0653 237.866 16.106C237.907 16.1467 237.938 16.1963 237.957 16.251C237.975 16.3057 237.98 16.3639 237.972 16.4211V16.9224C237.98 16.9795 237.975 17.0377 237.957 17.0924C237.938 17.1471 237.907 17.1968 237.866 17.2375C237.825 17.2781 237.776 17.3087 237.721 17.3268C237.666 17.3448 237.608 17.3498 237.551 17.3414H235.85C235.798 17.3267 235.742 17.3262 235.689 17.3401C235.637 17.3539 235.588 17.3815 235.55 17.4201C235.511 17.4588 235.484 17.5069 235.47 17.5598C235.456 17.6126 235.456 17.6682 235.471 17.7207V30.5794C235.479 30.6363 235.474 30.6943 235.455 30.7487C235.437 30.8032 235.407 30.8527 235.366 30.8933C235.325 30.9339 235.276 30.9645 235.221 30.9828C235.167 31.0011 235.109 31.0064 235.052 30.9985H234.37C234.314 31.0064 234.256 31.0011 234.201 30.9828C234.147 30.9645 234.097 30.9339 234.057 30.8933C234.016 30.8527 233.985 30.8032 233.967 30.7487C233.949 30.6943 233.943 30.6363 233.951 30.5794V17.7207C233.966 17.6682 233.967 17.6126 233.953 17.5598C233.939 17.5069 233.911 17.4588 233.873 17.4201C233.834 17.3815 233.786 17.3539 233.733 17.3401C233.68 17.3262 233.625 17.3267 233.572 17.3414H231.872C231.815 17.3494 231.757 17.344 231.703 17.3258C231.648 17.3075 231.599 17.2769 231.558 17.2362C231.517 17.1956 231.487 17.1461 231.468 17.0917C231.45 17.0372 231.445 16.9793 231.453 16.9224V16.4211C231.445 16.3642 231.45 16.3062 231.468 16.2518C231.487 16.1973 231.517 16.1478 231.558 16.1072C231.599 16.0666 231.648 16.0359 231.703 16.0177C231.757 15.9994 231.815 15.9941 231.872 16.002H237.551Z" fill="#202F3C"/><path d="M239.73 30.58V16.4217C239.722 16.3648 239.728 16.3068 239.746 16.2523C239.764 16.1979 239.795 16.1484 239.835 16.1078C239.876 16.0672 239.925 16.0365 239.98 16.0183C240.034 16 240.092 15.9946 240.149 16.0026H240.831C240.888 15.9946 240.946 16 241 16.0183C241.055 16.0365 241.104 16.0672 241.145 16.1078C241.185 16.1484 241.216 16.1979 241.234 16.2523C241.253 16.3068 241.258 16.3648 241.25 16.4217V30.58C241.258 30.6369 241.253 30.6949 241.234 30.7493C241.216 30.8038 241.185 30.8533 241.145 30.8939C241.104 30.9345 241.055 30.9651 241 30.9834C240.946 31.0016 240.888 31.007 240.831 30.9991H240.149C240.092 31.007 240.034 31.0016 239.98 30.9834C239.925 30.9651 239.876 30.9345 239.835 30.8939C239.795 30.8533 239.764 30.8038 239.746 30.7493C239.728 30.6949 239.722 30.6369 239.73 30.58Z" fill="#202F3C"/><path d="M250.333 16.002C250.39 15.9936 250.448 15.9986 250.503 16.0167C250.558 16.0347 250.608 16.0653 250.649 16.106C250.69 16.1467 250.721 16.1963 250.739 16.251C250.757 16.3057 250.763 16.3639 250.755 16.4211V30.5794C250.763 30.6366 250.757 30.6948 250.739 30.7495C250.721 30.8042 250.69 30.8538 250.649 30.8945C250.608 30.9352 250.558 30.9658 250.503 30.9838C250.448 31.0019 250.39 31.0069 250.333 30.9985H249.803C249.683 31.0064 249.563 30.9747 249.463 30.9083C249.363 30.819 249.287 30.7058 249.243 30.5794L245.304 20.3598C245.278 20.2803 245.235 20.2484 245.174 20.2617C245.147 20.2663 245.122 20.2812 245.105 20.3034C245.088 20.3256 245.081 20.3534 245.084 20.3811V30.5794C245.092 30.6363 245.087 30.6943 245.068 30.7487C245.05 30.8032 245.019 30.8527 244.979 30.8933C244.938 30.9339 244.889 30.9646 244.834 30.9828C244.78 31.0011 244.722 31.0064 244.665 30.9985H243.986C243.929 31.0069 243.871 31.0019 243.816 30.9838C243.761 30.9658 243.711 30.9352 243.67 30.8945C243.629 30.8538 243.598 30.8042 243.58 30.7495C243.562 30.6948 243.556 30.6366 243.564 30.5794V16.4211C243.556 16.3639 243.562 16.3057 243.58 16.251C243.598 16.1963 243.629 16.1467 243.67 16.106C243.711 16.0653 243.761 16.0347 243.816 16.0167C243.871 15.9986 243.929 15.9936 243.986 16.002H244.516C244.64 15.9917 244.763 16.0235 244.867 16.0922C244.961 16.1842 245.032 16.2967 245.076 16.4211L249.015 26.6406C249.041 26.7202 249.084 26.7521 249.145 26.7388C249.172 26.7342 249.197 26.7193 249.214 26.6971C249.23 26.6749 249.238 26.6471 249.235 26.6194V16.4211C249.227 16.3642 249.232 16.3062 249.251 16.2518C249.269 16.1973 249.299 16.1478 249.34 16.1072C249.381 16.0666 249.43 16.0359 249.485 16.0177C249.539 15.9994 249.597 15.9941 249.654 16.002H250.333Z" fill="#202F3C"/><path d="M259.207 22.602C259.261 22.5944 259.316 22.5996 259.368 22.6171C259.42 22.6346 259.467 22.6639 259.506 22.7028C259.545 22.7416 259.574 22.7889 259.591 22.841C259.608 22.893 259.613 22.9483 259.605 23.0025V27.4611C259.605 28.6459 259.305 29.5583 258.706 30.1984C258.399 30.5187 258.027 30.77 257.616 30.9356C257.204 31.1011 256.762 31.1771 256.319 31.1585C255.279 31.1585 254.462 30.8252 253.868 30.1586C253.274 29.492 252.977 28.5256 252.977 27.2596V19.7427C252.977 18.4749 253.274 17.5077 253.868 16.8411C254.462 16.1744 255.279 15.842 256.319 15.8438C257.276 15.8438 258.035 16.1223 258.586 16.6819C259.154 17.2715 259.491 18.0451 259.536 18.8622C259.537 18.947 259.524 19.0313 259.496 19.1115C259.47 19.1857 259.395 19.2229 259.276 19.2229H258.417C258.332 19.232 258.247 19.2077 258.179 19.1553C258.112 19.1028 258.068 19.0262 258.056 18.9417C257.996 18.4895 257.798 18.067 257.488 17.7322C257.34 17.5778 257.161 17.4562 256.962 17.3754C256.764 17.2945 256.551 17.2561 256.337 17.2628C256.089 17.2615 255.843 17.3156 255.618 17.4211C255.394 17.5266 255.195 17.6809 255.037 17.8728C254.684 18.2795 254.507 18.9028 254.507 19.7427V27.2596C254.507 28.0995 254.684 28.7184 255.037 29.1162C255.195 29.3081 255.394 29.4624 255.618 29.5679C255.843 29.6735 256.089 29.7276 256.337 29.7263C256.573 29.7246 256.806 29.6738 257.021 29.577C257.236 29.4801 257.429 29.3395 257.586 29.164C257.952 28.79 258.138 28.2012 258.138 27.4001V24.2173C258.164 24.1612 258.171 24.0987 258.16 24.0381C258.15 23.9775 258.12 23.9217 258.077 23.8781C258.033 23.8346 257.977 23.8054 257.917 23.7944C257.856 23.7834 257.794 23.7913 257.738 23.8168H256.698C256.644 23.8251 256.589 23.8208 256.537 23.8041C256.485 23.7874 256.438 23.7589 256.399 23.7208C256.36 23.6827 256.331 23.6361 256.313 23.5846C256.296 23.5331 256.29 23.4782 256.297 23.4242V22.9892C256.29 22.9353 256.296 22.8804 256.313 22.8289C256.331 22.7774 256.36 22.7308 256.399 22.6927C256.438 22.6545 256.485 22.626 256.537 22.6094C256.589 22.5927 256.644 22.5884 256.698 22.5967L259.207 22.602Z" fill="#202F3C"/><path d="M96.752 33.8368C96.752 34.0479 96.8358 34.2502 96.985 34.3995C97.1342 34.5487 97.3366 34.6325 97.5477 34.6325C97.7587 34.6325 97.9611 34.5487 98.1103 34.3995C98.2595 34.2502 98.3434 34.0479 98.3434 33.8368V13.1483C98.3434 12.1086 96.752 12.0662 96.752 13.1483V33.8368Z" fill="#202F3C"/></g><defs><clipPath id="clip0_632_3856"><rect width="259.606" height="47" fill="white"/></clipPath></defs></svg>